<mxfile host="Electron" agent="Mozilla/5.0 (X11; Linux x86_64) AppleWebKit/537.36 (KHTML, like Gecko) draw.io/26.1.1 Chrome/132.0.6834.210 Electron/34.3.3 Safari/537.36" version="26.1.1">
  <diagram name="Page-1" id="ehrrjcjb_HXyQ1wZUinq">
    <mxGraphModel dx="637" dy="547" grid="1" gridSize="10" guides="1" tooltips="1" connect="1" arrows="1" fold="1" page="1" pageScale="1" pageWidth="850" pageHeight="1100" math="0" shadow="0">
      <root>
        <mxCell id="0" />
        <mxCell id="1" parent="0" />
        <mxCell id="sw5snOQvBSSBewpTjX61-3" style="edgeStyle=orthogonalEdgeStyle;curved=0;rounded=0;html=1;endArrow=openThin;fillColor=#ffffff;strokeColor=#14205F;" parent="1" source="sw5snOQvBSSBewpTjX61-1" target="sw5snOQvBSSBewpTjX61-2" edge="1">
          <mxGeometry relative="1" as="geometry" />
        </mxCell>
        <mxCell id="sw5snOQvBSSBewpTjX61-1" value="Policy Rule" style="shape=process;whiteSpace=wrap;html=1;backgroundOutline=1;fillColor=#ffffff;fontColor=#14205F;strokeColor=#14205F;" parent="1" vertex="1">
          <mxGeometry x="270" y="100" width="120" height="40" as="geometry" />
        </mxCell>
        <mxCell id="sw5snOQvBSSBewpTjX61-14" style="edgeStyle=orthogonalEdgeStyle;curved=0;rounded=0;html=1;entryX=0;entryY=0.5;entryDx=0;entryDy=0;endArrow=openThin;fillColor=#ffffff;strokeColor=#14205F;" parent="1" source="sw5snOQvBSSBewpTjX61-2" target="sw5snOQvBSSBewpTjX61-12" edge="1">
          <mxGeometry relative="1" as="geometry" />
        </mxCell>
        <mxCell id="sw5snOQvBSSBewpTjX61-15" style="edgeStyle=orthogonalEdgeStyle;curved=0;rounded=0;html=1;exitX=1;exitY=0.5;exitDx=0;exitDy=0;entryX=0;entryY=0.5;entryDx=0;entryDy=0;endArrow=openThin;fillColor=#ffffff;strokeColor=#14205F;" parent="1" source="sw5snOQvBSSBewpTjX61-2" target="sw5snOQvBSSBewpTjX61-11" edge="1">
          <mxGeometry relative="1" as="geometry" />
        </mxCell>
        <mxCell id="sw5snOQvBSSBewpTjX61-16" style="edgeStyle=orthogonalEdgeStyle;curved=0;rounded=0;html=1;exitX=1;exitY=0.5;exitDx=0;exitDy=0;entryX=0;entryY=0.5;entryDx=0;entryDy=0;endArrow=openThin;fillColor=#ffffff;strokeColor=#14205F;" parent="1" source="sw5snOQvBSSBewpTjX61-2" target="sw5snOQvBSSBewpTjX61-13" edge="1">
          <mxGeometry relative="1" as="geometry" />
        </mxCell>
        <mxCell id="sw5snOQvBSSBewpTjX61-2" value="Mark" style="rounded=1;whiteSpace=wrap;html=1;fillColor=#ffffff;fontColor=#14205F;strokeColor=#14205F;" parent="1" vertex="1">
          <mxGeometry x="450" y="90" width="120" height="60" as="geometry" />
        </mxCell>
        <mxCell id="sw5snOQvBSSBewpTjX61-8" style="edgeStyle=orthogonalEdgeStyle;curved=0;rounded=0;html=1;entryX=0;entryY=0.75;entryDx=0;entryDy=0;endArrow=openThin;fillColor=#ffffff;strokeColor=#14205F;" parent="1" source="sw5snOQvBSSBewpTjX61-5" target="sw5snOQvBSSBewpTjX61-2" edge="1">
          <mxGeometry relative="1" as="geometry" />
        </mxCell>
        <mxCell id="sw5snOQvBSSBewpTjX61-5" value="Policy Rule" style="shape=process;whiteSpace=wrap;html=1;backgroundOutline=1;fillColor=#ffffff;fontColor=#14205F;strokeColor=#14205F;" parent="1" vertex="1">
          <mxGeometry x="270" y="150" width="120" height="40" as="geometry" />
        </mxCell>
        <mxCell id="sw5snOQvBSSBewpTjX61-7" style="edgeStyle=orthogonalEdgeStyle;curved=0;rounded=0;html=1;entryX=0;entryY=0.25;entryDx=0;entryDy=0;endArrow=openThin;fillColor=#ffffff;strokeColor=#14205F;" parent="1" source="sw5snOQvBSSBewpTjX61-6" target="sw5snOQvBSSBewpTjX61-2" edge="1">
          <mxGeometry relative="1" as="geometry" />
        </mxCell>
        <mxCell id="sw5snOQvBSSBewpTjX61-6" value="Policy Rule" style="shape=process;whiteSpace=wrap;html=1;backgroundOutline=1;fillColor=#ffffff;fontColor=#14205F;strokeColor=#14205F;" parent="1" vertex="1">
          <mxGeometry x="270" y="50" width="120" height="40" as="geometry" />
        </mxCell>
        <mxCell id="sw5snOQvBSSBewpTjX61-11" value="Dashboard" style="rounded=0;whiteSpace=wrap;html=1;fillColor=#ffffff;fontColor=#14205F;strokeColor=#14205F;" parent="1" vertex="1">
          <mxGeometry x="640" y="25" width="120" height="40" as="geometry" />
        </mxCell>
        <mxCell id="sw5snOQvBSSBewpTjX61-12" value="Report" style="rounded=0;whiteSpace=wrap;html=1;fillColor=#ffffff;fontColor=#14205F;strokeColor=#14205F;" parent="1" vertex="1">
          <mxGeometry x="640" y="75" width="120" height="40" as="geometry" />
        </mxCell>
        <mxCell id="sw5snOQvBSSBewpTjX61-13" value="GUI Lists/Panels" style="rounded=0;whiteSpace=wrap;html=1;fillColor=#ffffff;fontColor=#14205F;strokeColor=#14205F;" parent="1" vertex="1">
          <mxGeometry x="640" y="125" width="120" height="40" as="geometry" />
        </mxCell>
        <mxCell id="sw5snOQvBSSBewpTjX61-19" style="edgeStyle=orthogonalEdgeStyle;curved=0;rounded=0;html=1;entryX=0;entryY=0.5;entryDx=0;entryDy=0;endArrow=openThin;fillColor=#ffffff;strokeColor=#14205F;exitX=1;exitY=0.25;exitDx=0;exitDy=0;" parent="1" source="sw5snOQvBSSBewpTjX61-17" target="sw5snOQvBSSBewpTjX61-6" edge="1">
          <mxGeometry relative="1" as="geometry">
            <mxPoint x="210" y="95" as="sourcePoint" />
          </mxGeometry>
        </mxCell>
        <mxCell id="sw5snOQvBSSBewpTjX61-20" style="edgeStyle=orthogonalEdgeStyle;curved=0;rounded=0;html=1;exitX=1;exitY=0.75;exitDx=0;exitDy=0;entryX=0;entryY=0.5;entryDx=0;entryDy=0;endArrow=openThin;fillColor=#ffffff;strokeColor=#14205F;" parent="1" source="sw5snOQvBSSBewpTjX61-17" target="sw5snOQvBSSBewpTjX61-1" edge="1">
          <mxGeometry relative="1" as="geometry" />
        </mxCell>
        <mxCell id="sw5snOQvBSSBewpTjX61-17" value="Policy" style="rounded=0;whiteSpace=wrap;html=1;fillColor=#ffffff;fontColor=#14205F;strokeColor=#14205F;" parent="1" vertex="1">
          <mxGeometry x="90" y="60" width="120" height="70" as="geometry" />
        </mxCell>
        <mxCell id="sw5snOQvBSSBewpTjX61-21" style="edgeStyle=orthogonalEdgeStyle;curved=0;rounded=0;html=1;entryX=0;entryY=0.5;entryDx=0;entryDy=0;endArrow=openThin;fillColor=#ffffff;strokeColor=#14205F;" parent="1" source="sw5snOQvBSSBewpTjX61-18" target="sw5snOQvBSSBewpTjX61-5" edge="1">
          <mxGeometry relative="1" as="geometry" />
        </mxCell>
        <mxCell id="sw5snOQvBSSBewpTjX61-18" value="Policy" style="rounded=0;whiteSpace=wrap;html=1;fillColor=#ffffff;fontColor=#14205F;strokeColor=#14205F;" parent="1" vertex="1">
          <mxGeometry x="90" y="150" width="120" height="40" as="geometry" />
        </mxCell>
        <mxCell id="C696tKex0TbrUpghjz5W-1" value="Reviews" style="rounded=0;whiteSpace=wrap;html=1;fillColor=#ffffff;fontColor=#14205F;strokeColor=#14205F;" vertex="1" parent="1">
          <mxGeometry x="640" y="175" width="120" height="40" as="geometry" />
        </mxCell>
        <mxCell id="C696tKex0TbrUpghjz5W-2" style="edgeStyle=orthogonalEdgeStyle;curved=0;rounded=0;html=1;exitX=1;exitY=0.5;exitDx=0;exitDy=0;entryX=0;entryY=0.5;entryDx=0;entryDy=0;endArrow=openThin;fillColor=#ffffff;strokeColor=#14205F;" edge="1" parent="1" source="sw5snOQvBSSBewpTjX61-2" target="C696tKex0TbrUpghjz5W-1">
          <mxGeometry relative="1" as="geometry">
            <mxPoint x="580" y="145" as="sourcePoint" />
            <mxPoint x="650" y="180" as="targetPoint" />
          </mxGeometry>
        </mxCell>
      </root>
    </mxGraphModel>
  </diagram>
</mxfile>
